<svg xmlns="http://www.w3.org/2000/svg" viewBox="0 0 2064 332"><g id="zugrio-wordmark" fill="#C8CCD0"><path id="Z" d="M31 18 V83 L196 84 L18 260 V313 L315 312 L381 243 L157 242 L379 18 Z"/><path id="U" d="M395 18 H477 V181 C477 222 504 245 560 245 C618 245 657 223 657 181 V18 H739 V195 C739 272 681 313 568 313 C456 313 395 271 395 195 Z"/><g id="G"><path d="M1116 85 C1088 43 1031 18 957 18 C842 18 762 74 762 165 C762 257 839 313 955 313 C1044 313 1114 271 1137 204 L1052 204 C1031 230 995 245 944 245 C882 245 844 214 844 166 C844 118 883 88 944 88 C982 88 1013 96 1039 109 L1116 85 Z"/><path d="M963 140 H1139 V201 L1052 208 H908 L963 140 Z"/></g><path id="R" d="M1135 18 L1190 88 H1393 C1409 88 1418 98 1418 113 C1418 129 1408 141 1388 141 H1164 V313 H1248 V207 H1290 L1394 313 H1504 L1405 211 C1437 205 1467 190 1487 169 C1500 154 1506 137 1506 120 C1506 58 1466 18 1400 18 Z"/><path id="I" d="M1538 18 H1622 V313 H1538 Z"/><path id="O" d="M1774 18 H1924 C2000 18 2046 71 2046 165 C2046 259 2000 313 1924 313 H1774 C1698 313 1652 259 1652 165 C1652 71 1698 18 1774 18 Z M1800 88 H1898 C1940 88 1962 117 1962 166 C1962 215 1940 245 1898 245 H1800 C1758 245 1735 215 1735 166 C1735 117 1758 88 1800 88 Z" fill-rule="evenodd"/></g></svg>
